<?xml version="1.0" encoding="UTF-8"?>
<svg width="133px" height="146px" viewBox="0 0 133 146" version="1.1" xmlns="http://www.w3.org/2000/svg" xmlns:xlink="http://www.w3.org/1999/xlink">
    <!-- Generator: Sketch 55.2 (78181) - https://sketchapp.com -->
    <title>Idea App Logo Colour RGB Copy</title>
    <desc>Created with Sketch.</desc>
    <defs>
        <polygon id="path-1" points="0 0.115131894 129.681982 0.115131894 129.681982 130.189928 0 130.189928"></polygon>
    </defs>
    <g id="⚙-General-Settings" stroke="none" stroke-width="1" fill="none" fill-rule="evenodd">
        <g id="logo" transform="translate(-121.000000, -21.000000)">
            <g id="Idea-App-Logo-Colour-RGB-Copy" transform="translate(121.000000, 21.000000)">
                <g id="Group-3" transform="translate(0.000000, 15.705036)">
                    <mask id="mask-2" fill="white">
                        <use xlink:href="#path-1"></use>
                    </mask>
                    <g id="Clip-2"></g>
                    <path d="M124.569685,39.9167626 C121.213268,32.0215588 116.539068,25.0419185 110.677992,19.1529017 C104.850079,13.3023981 97.9312861,8.62654676 90.1380446,5.23738609 C82.2610236,1.84122302 73.7783465,0.115131894 64.8872441,0.115131894 C55.9978871,0.115131894 47.5169554,1.84122302 39.6591339,5.24788969 C31.8624016,8.62654676 24.9470997,13.3023981 19.1034777,19.1529017 C13.2319291,25.0419185 8.5682021,32.0093046 5.21527559,39.9167626 C1.8414042,47.8609832 0.120433071,56.4074101 0.120433071,65.307458 C0.120433071,74.2372662 1.8414042,82.7486811 5.21527559,90.6158753 C6.14906824,92.7726139 7.18234908,94.8278177 8.29940945,96.8235012 L0,127.856379 L29.8080577,119.850887 C32.9183727,121.858825 36.1840289,123.658441 39.6591339,125.158705 C47.5169554,128.570624 55.9978871,130.294964 64.8872441,130.294964 C73.7783465,130.294964 82.2610236,128.570624 90.1380446,125.158705 C97.9312861,121.797554 104.850079,117.118201 110.677992,111.255444 C116.521614,105.382182 121.213268,98.4480576 124.560958,90.6158753 C127.964501,82.7486811 129.681982,74.2372662 129.681982,65.307458 C129.681982,56.4074101 127.964501,47.8609832 124.569685,39.9167626" id="Fill-1" fill="#90C571" mask="url(#mask-2)"></path>
                </g>
                <path d="M27.8305118,100.822278 C25.9891076,100.822278 24.3222441,102.207002 24.3222441,104.775132 C24.3222441,107.341511 25.9891076,108.784005 27.8305118,108.784005 C29.6998425,108.784005 31.3387795,107.371271 31.3387795,104.803141 C31.3387795,102.236763 29.6998425,100.822278 27.8305118,100.822278 Z M26.3922966,96.5245564 C28.7800131,96.5245564 30.4765486,97.6204317 31.3387795,99.0331655 L31.3387795,96.7556355 L36.2590814,96.7556355 L36.2590814,112.852398 L31.3387795,112.852398 L31.3387795,110.573118 C30.448622,111.987602 28.7503412,113.083477 26.3643701,113.083477 C22.451168,113.083477 19.3164173,109.851871 19.3164173,104.775132 C19.3164173,99.6966427 22.451168,96.5245564 26.3922966,96.5245564 L26.3922966,96.5245564 Z" id="Fill-4" fill="#FFFFFE"></path>
                <path d="M48.2238451,100.822278 C46.3824409,100.822278 44.713832,102.236763 44.713832,104.803141 C44.713832,107.371271 46.3824409,108.784005 48.2238451,108.784005 C50.0931759,108.784005 51.7617848,107.341511 51.7617848,104.775132 C51.7617848,102.207002 50.0931759,100.822278 48.2238451,100.822278 Z M49.6917323,96.5245564 C53.6328609,96.5245564 56.7676115,99.6966427 56.7676115,104.775132 C56.7676115,109.851871 53.6328609,113.083477 49.6917323,113.083477 C47.3319423,113.083477 45.6354068,111.957842 44.7435039,110.602878 L44.7435039,120.527026 L39.8266929,120.527026 L39.8266929,96.7556355 L44.7435039,96.7556355 L44.7435039,99.0331655 C45.6354068,97.6204317 47.3319423,96.5245564 49.6917323,96.5245564 L49.6917323,96.5245564 Z" id="Fill-5" fill="#FFFFFE"></path>
                <path d="M67.7566929,100.822278 C65.9152887,100.822278 64.2466798,102.236763 64.2466798,104.803141 C64.2466798,107.371271 65.9152887,108.784005 67.7566929,108.784005 C69.6260236,108.784005 71.2928871,107.341511 71.2928871,104.775132 C71.2928871,102.207002 69.6260236,100.822278 67.7566929,100.822278 Z M69.2210892,96.5245564 C73.1622178,96.5245564 76.2987139,99.6966427 76.2987139,104.775132 C76.2987139,109.851871 73.1622178,113.083477 69.2210892,113.083477 C66.86479,113.083477 65.1665092,111.957842 64.2746063,110.602878 L64.2746063,120.527026 L59.3560499,120.527026 L59.3560499,96.7556355 L64.2746063,96.7556355 L64.2746063,99.0331655 C65.1665092,97.6204317 66.86479,96.5245564 69.2210892,96.5245564 L69.2210892,96.5245564 Z" id="Fill-6" fill="#FFFFFE"></path>
                <polygon id="Fill-7" fill="#11384B" points="19.6620079 90.1436211 24.4688583 90.1436211 24.4688583 66.1096403 19.6620079 66.1096403"></polygon>
                <path d="M42.9020997,86.0454676 C47.9498163,86.0454676 50.8000656,83.1534772 50.8000656,78.162518 C50.8000656,73.1680576 47.9498163,70.1727818 42.9020997,70.1727818 L39.5037927,70.1727818 L39.5037927,86.0454676 L42.9020997,86.0454676 Z M55.7081496,78.162518 C55.7081496,85.427506 50.7302493,90.1436211 43.074895,90.1436211 L34.6986877,90.1436211 L34.6986877,66.1096403 L43.074895,66.1096403 C50.7302493,66.1096403 55.7081496,70.8607674 55.7081496,78.162518 L55.7081496,78.162518 Z" id="Fill-8" fill="#11384B"></path>
                <polyline id="Fill-9" fill="#11384B" points="75.2759055 69.9994724 66.1770997 69.9994724 66.1770997 76.0267866 74.2443701 76.0267866 74.2443701 79.8483453 66.1770997 79.8483453 66.1770997 86.218777 75.2759055 86.218777 75.2759055 90.1436211 61.3719948 90.1436211 61.3719948 66.0746283 75.2759055 66.0746283 75.2759055 69.9994724"></polyline>
                <g id="Group-13" transform="translate(75.052493, 0.000000)" fill="#11384B">
                    <path d="M17.2498556,71.653789 L13.7834777,81.707482 L20.717979,81.707482 L17.2498556,71.653789 Z M22.0217979,85.5640528 L12.4796588,85.5640528 L10.8983202,90.1436211 L5.85409449,90.1436211 L14.4694226,66.0746283 L20.0651969,66.0746283 L28.6822703,90.1436211 L23.6013911,90.1436211 L22.0217979,85.5640528 L22.0217979,85.5640528 Z" id="Fill-10"></path>
                    <path d="M57.8218373,29.1719904 C57.8218373,45.163717 44.8970997,58.1286571 28.951063,58.1286571 C13.0050262,58.1286571 0.0802887139,45.163717 0.0802887139,29.1719904 C0.0802887139,13.1785132 13.0050262,0.213573141 28.951063,0.213573141 C44.8970997,0.213573141 57.8218373,13.1785132 57.8218373,29.1719904" id="Fill-12"></path>
                </g>
                <path d="M99.9734121,25.0843405 C99.3782283,24.238801 99.0256562,23.2094484 99.0256562,22.0960671 C99.0256562,19.2268345 101.354029,16.895036 104.21126,16.895036 C107.070236,16.895036 109.396864,19.2268345 109.396864,22.0960671 C109.396864,23.2147002 109.040801,24.2493046 108.440381,25.0983453 L111.67811,28.7868585 C113.26294,27.0082494 114.235131,24.6694484 114.235131,22.0960671 C114.235131,16.5449161 109.74769,12.0441247 104.21126,12.0441247 C98.6748294,12.0441247 94.1873885,16.5449161 94.1873885,22.0960671 C94.1873885,24.662446 95.1560892,26.9977458 96.733937,28.7763549 L99.9734121,25.0843405" id="Fill-14" fill="#FFFFFE"></path>
                <path d="M106.637375,26.7053957 C106.63563,26.7071463 106.633885,26.7088969 106.633885,26.7106475 L106.621667,26.6983933 C105.900814,27.080024 105.082218,27.2988489 104.21126,27.2988489 C103.335066,27.2988489 102.511234,27.0782734 101.78689,26.6913909 L98.5439239,30.3851559 C98.5439239,30.3851559 98.5439239,30.3851559 98.5456693,30.3851559 L98.5439239,30.3886571 C98.9209318,30.9208393 99.2001969,31.5282974 99.3572835,32.1847722 L109.065236,32.1847722 C109.222323,31.5317986 109.499843,30.9278417 109.875105,30.3956595 L106.637375,26.7053957" id="Fill-15" fill="#FFFFFE"></path>
                <path d="M94.3200394,38.3643885 C91.4593176,38.3643885 89.1344357,36.0325899 89.1344357,33.1616067 C89.1344357,30.2941247 91.4593176,27.9605755 94.3200394,27.9605755 C95.0792913,27.9605755 95.8001444,28.1286331 96.4529265,28.4244844 C95.2468504,26.9452278 94.4474541,25.1176019 94.2414961,23.1114149 C88.7417192,23.1534293 84.296168,27.6367146 84.296168,33.1616067 C84.296168,38.7145084 88.7836089,43.2170504 94.3200394,43.2170504 C99.4462992,43.2170504 103.664948,39.3552278 104.263622,34.3765228 L99.3572835,34.3765228 C98.8092257,36.6610552 96.7636089,38.3643885 94.3200394,38.3643885" id="Fill-16" fill="#FFFFFE"></path>
                <path d="M114.156588,23.1114149 C113.896522,25.1876259 113.004619,27.0642686 111.681601,28.548777 L111.692073,28.5627818 C112.412927,28.1794005 113.233268,27.9623261 114.104226,27.9623261 C116.964948,27.9623261 119.291575,30.2941247 119.291575,33.1633573 C119.291575,36.0308393 116.964948,38.3661391 114.104226,38.3661391 C111.662402,38.3661391 109.613294,36.6610552 109.065236,34.3765228 L104.160643,34.3765228 C104.759318,39.3552278 108.979711,43.2170504 114.104226,43.2170504 C119.640656,43.2170504 124.128097,38.7145084 124.128097,33.1633573 C124.128097,27.6279616 119.668583,23.1376739 114.156588,23.1114149" id="Fill-17" fill="#FFFFFE"></path>
            </g>
        </g>
    </g>
</svg>